<svg width="566" height="600" viewBox="0 0 566 600" fill="none" xmlns="http://www.w3.org/2000/svg">
<path d="M524.256 426.84C528.94 420.345 533.899 414.027 538.25 407.316C546.787 394.146 554.975 380.75 563.358 367.479C563.754 366.852 564.638 366.534 565.648 366.036C566 384.688 566 403.375 565.638 422.589C564.524 424.323 563.43 425.438 563.071 426.753C557.343 447.759 548.274 467.083 534.544 484.104C532.694 486.397 530.973 488.794 529.192 491.143C533.179 490.439 536.541 489.19 539.815 487.742C548.563 483.873 557.274 479.92 566 476C566 478.371 566 480.741 565.655 483.586C564.607 484.475 563.831 484.802 563.214 485.319C552.702 494.121 542.49 503.318 531.577 511.59C527.045 515.024 521.023 516.492 515.795 518.524C521.672 510.447 524.171 501.77 524.12 492.104C524.006 470.35 524.192 448.595 524.256 426.84Z" fill="#EFEFF0"/>
<path d="M515.678 518.854C521.023 516.492 527.045 515.024 531.577 511.59C542.491 503.318 552.702 494.121 563.215 485.319C563.832 484.802 564.608 484.475 565.655 484.03C566 499.688 566 515.375 565.532 531.533C544.398 532.003 523.733 532.026 503.069 531.959C501.37 531.953 499.673 531.33 498.334 530.953C504.355 526.893 510.017 522.874 515.678 518.854Z" fill="#FEFEFE"/>
<path d="M566 475.531C557.274 479.92 548.563 483.873 539.815 487.742C536.541 489.19 533.179 490.439 529.192 491.143C530.973 488.794 532.694 486.397 534.544 484.104C548.275 467.083 557.343 447.759 563.071 426.753C563.43 425.438 564.524 424.323 565.638 423.057C566 440.354 566 457.708 566 475.531Z" fill="#FEFEFE"/>
<path d="M77.0945 533.846C52.0421 533.902 26.9897 533.959 1.46861 534.007C1 533.556 1 533.111 1 532.333C25.6622 531.996 50.3244 531.993 75.7289 532.052C76.6615 532.157 76.8518 532.199 77.0274 532.508C77.0399 533.131 77.0672 533.489 77.0945 533.846Z" fill="#5C5A66"/>
<path d="M497.975 530.994C499.673 531.33 501.37 531.953 503.069 531.959C523.733 532.026 544.398 532.003 565.531 532.001C566 532.444 566 532.889 566 533.667C542.633 533.996 519.265 533.993 495.449 533.539C495.992 532.391 496.983 531.693 497.975 530.994Z" fill="#5C5A66"/>
<path d="M498.334 530.953C496.983 531.693 495.992 532.391 494.986 533.451C463.068 533.865 431.164 533.936 399.26 533.964C376.825 533.983 354.391 533.944 331.479 533.517C330.057 532.384 329.111 531.664 328.165 530.945C312.784 525.443 302.551 511.542 302.017 495.415C301.979 494.25 301.975 493.083 301.975 491.916C301.975 369.264 301.966 246.612 301.989 123.959C301.992 105.624 311.751 91.0402 328.171 85.3742C332.492 83.8833 337.281 83.1137 341.858 83.0984C389.352 82.9394 436.847 82.9157 484.341 83.0416C507.193 83.1021 523.938 100.091 524.048 123.028C524.141 142.192 522.679 161.488 524.475 180.483C526.144 198.142 526.567 215.704 526.579 233.352C526.58 234.909 526.067 236.465 525.125 238.185C524.379 238.895 524.3 239.441 524.221 239.987C524.171 256.441 524.079 272.895 524.077 289.349C524.07 334.897 524.101 380.445 524.186 426.417C524.192 448.595 524.006 470.35 524.12 492.104C524.171 501.77 521.672 510.447 515.795 518.524C510.016 522.874 504.355 526.893 498.334 530.953ZM312.995 454.913C312.977 468.736 312.879 482.56 312.965 496.382C313.044 509.016 325.286 522.571 337.785 522.935C353.754 523.4 369.748 522.981 386.688 523.127C418.992 523.129 451.296 523.149 483.601 523.104C486.578 523.099 489.639 523.049 492.516 522.389C507.22 519.011 515.797 507.709 515.8 491.769C515.822 397.353 515.809 302.938 515.796 208.522C515.795 207.03 515.651 205.538 515.841 203.137C515.862 176.364 516.042 149.589 515.844 122.818C515.732 107.659 505.881 95.7116 491.127 93.5193C483.666 92.4108 475.905 93.3256 468.179 93.3256C468.179 94.056 468.076 94.718 468.194 95.3374C469.778 103.599 464.91 110.789 456.73 112.035C454.609 112.358 452.422 112.305 450.264 112.328C435.817 112.48 421.369 112.606 406.033 112.478C395.045 112.454 384.055 112.556 373.069 112.365C363.885 112.206 358.307 105.967 358.809 96.8463C358.869 95.7464 358.942 94.6472 359.037 93.1063C354.372 93.1063 350.073 93.0988 345.774 93.1075C324.667 93.1501 312.951 104.821 312.95 125.834C312.944 233.39 312.944 340.946 312.952 448.502C312.952 450.33 313.063 452.159 312.995 454.913Z" fill="#424058"/>
<path d="M74.2046 456.173C70.7216 456.099 67.2389 455.987 63.7556 455.96C56.6072 455.903 55.2364 454.512 56.1528 447.259C57.4849 436.716 59.1044 426.209 60.4946 415.673C60.883 412.729 60.8957 409.736 61.0916 405.959C62.1453 400.41 63.1882 395.668 64.4177 390.077C57.1538 388.645 50.588 387.352 44.0222 386.058C43.3923 384.683 41.907 383.01 42.2662 381.979C45.4332 372.894 48.3491 363.64 52.5628 355.035C54.7711 350.525 59.1071 346.837 63.0758 343.479C66.2599 340.785 71.5813 340.818 72.7418 335.328C72.929 334.443 75.8206 333.784 77.5154 333.637C80.6153 333.369 83.755 333.561 86.7571 333.561C89.2261 323.136 89.2239 323.36 101.122 323.476C108.153 323.544 107.764 328.458 108.027 333.568C111.611 333.568 114.92 333.313 118.163 333.668C119.969 333.866 122.937 334.791 123.185 335.886C124.137 340.088 127.376 340.725 130.472 342.26C136.415 345.207 141.077 349.659 143.503 356.062C146.798 364.757 150.1 373.45 153.33 382.169C153.637 382.999 153.459 384.008 152.82 385.135C146.678 386.589 141.195 387.74 135.784 389.164C134.392 389.53 132.059 390.897 132.14 391.566C132.796 396.992 133.922 402.361 134.906 407.747C134.62 409.435 133.894 411.184 134.118 412.802C135.747 424.588 137.624 436.339 139.304 448.118C140.156 454.093 138.481 455.88 132.37 455.949C128.889 455.988 125.408 455.987 121.009 456.006C113.008 456.047 105.924 456.087 98.5428 456.056C97.651 456.044 97.057 456.103 95.97 456.091C88.386 456.071 81.2953 456.122 74.2046 456.173Z" fill="#302F42"/>
<path d="M135.276 249.818C145.047 265.152 139.502 290.039 123.825 302.074C114.828 308.981 104.72 311.716 92.7168 311.134C84.6524 308.492 77.4219 305.852 70.0559 302.94C69.9511 302.469 69.9818 302.269 69.9367 301.736C69.1555 300.695 68.4489 299.99 67.7454 299.281C55.6092 287.056 51.8439 272.347 56.6213 256.094C61.3839 239.892 72.8933 230.132 89.4101 226.572C106.125 222.969 125.776 231.754 132.57 245.936C121.783 246.671 111.401 243.53 101.033 246.769C112.265 249.945 123.883 248.73 135.276 249.818ZM117.444 258.149C116.005 264.165 114.566 270.181 113.133 276.17C114.954 276.691 115.434 276.777 115.871 276.962C117.514 277.657 119.143 278.384 120.778 279.1C119.29 280.65 117.971 282.433 116.257 283.67C115.11 284.499 113.404 284.553 111.337 285.122C115.761 287.634 121.141 285.773 123.042 281.792C124.814 278.079 123.349 275.859 117.108 272.901C117.461 268.082 117.816 263.225 117.444 258.149Z" fill="#6D64FA"/>
<path d="M84.2242 127.197C82.8349 129.075 81.675 130.678 80.0326 132.948C73.336 127.943 66.6466 122.942 59.4453 117.559C64.914 110.179 69.9433 103.25 75.1229 96.4359C81.3402 88.2567 87.7873 80.2505 93.9195 72.0091C96.0262 69.1778 97.4134 68.4066 100.619 70.9164C114.177 81.5317 127.929 91.9036 141.755 102.169C145.208 104.733 145.65 106.955 142.926 110.253C138.718 115.348 134.729 120.623 130.198 126.394C128.211 124.873 126.314 123.647 124.68 122.135C113.805 112.077 92.7216 114.559 84.2242 127.197Z" fill="#F0F0F0"/>
<path d="M98.8408 456.127C105.924 456.087 113.008 456.047 120.55 456.091C121.025 479.244 121.07 502.313 121.003 525.383C120.997 527.299 120.237 529.213 119.481 531.603C118.735 532.099 118.336 532.12 117.483 532.048C111.519 531.971 106.007 531.987 100.381 531.585C99.8108 528.59 98.9714 526.015 98.9573 523.436C98.8345 501 98.8596 478.564 98.8408 456.127Z" fill="#6D64FA"/>
<path d="M74.1787 456.626C81.2953 456.122 88.3861 456.071 95.9339 456.551C96.382 479.322 96.4299 501.562 96.29 523.802C96.2729 526.52 95.248 529.233 94.242 531.962C88.21 532.064 82.6262 532.153 77.0424 532.241C76.8521 532.199 76.6617 532.157 76.1917 532.03C75.3163 529.239 74.2196 526.537 74.2037 523.829C74.0731 501.58 74.1435 479.33 74.1787 456.626Z" fill="#6F66F9"/>
<path d="M135.188 407.98C133.922 402.361 132.795 396.992 132.14 391.566C132.059 390.897 134.391 389.53 135.784 389.164C141.195 387.74 146.678 386.589 152.487 385.326C155.998 393.126 159.048 400.983 162.342 408.736C166.041 417.44 169.999 426.033 173.772 434.706C176.1 440.059 175.104 442.528 169.771 445.009C167.215 446.198 164.625 447.314 162.045 448.452C156.693 450.815 154.231 449.964 151.764 444.536C146.273 432.456 140.895 420.324 135.188 407.98Z" fill="#6F66F9"/>
<path d="M43.8932 386.383C50.588 387.352 57.1538 388.645 64.4177 390.077C63.1882 395.668 62.1453 400.41 60.9777 405.509C57.3094 413.118 53.6802 420.331 50.2503 427.638C47.637 433.205 45.2626 438.884 42.8083 444.525C41.0036 448.673 38.2012 449.874 34.0012 447.852C19.5623 440.902 18.3916 443.435 25.7838 427.295C31.9451 413.843 37.783 400.243 43.8932 386.383Z" fill="#6F66F9"/>
<path d="M256.008 320.975C252.129 325.9 248.408 330.502 244.367 335.503C235.584 328.885 227.284 322.642 219 316.38C216.916 314.805 216.598 313.271 218.434 310.977C223.492 304.659 228.319 298.154 233.155 291.662C237.182 286.258 238.714 286.087 243.799 290.286C249.413 294.92 255.097 299.476 260.876 303.902C265.865 307.723 265.905 308.048 261.983 312.6C259.829 315.1 258.091 317.957 256.008 320.975Z" fill="#F0F0F0"/>
<path d="M71.9932 306.021C63.6406 302.788 55.2017 299.758 46.967 296.248C41.8171 294.053 40.0212 289.229 39.6815 284.011C38.4592 265.233 40.4731 247.091 50.7253 230.666C51.2284 229.86 51.4904 228.904 51.8779 227.986C38.9507 224.637 34.7848 220.582 35.7448 212.441C36.5034 206.008 42.263 200.988 48.8213 201.043C56.6232 201.109 60.7568 206.077 62.1568 217.363C64.629 215.842 66.8936 214.198 69.3646 212.969C84.6806 205.352 99.3923 205.542 113.392 216.325C114.892 217.481 117.31 217.826 119.318 217.874C126.49 218.045 133.228 219.322 138.802 224.238C147.229 231.67 146.227 243.846 136.181 248.133C135.032 247.532 134.559 246.935 134.447 246.256C142.395 243.126 144.322 234.751 138.801 228.271C133.886 222.5 127.276 220.514 119.986 220.769C116.135 220.904 113.278 219.749 110.033 217.516C105.776 214.586 100.681 212.157 95.6308 211.228C80.0793 208.367 67.4443 214.504 57.5749 226.196C43.1462 243.289 40.7663 263.755 42.6688 285.035C42.9289 287.944 45.0429 291.97 47.4478 293.164C54.6641 296.747 62.4495 299.184 70.0128 302.069C69.982 302.269 69.9512 302.469 70.1069 303.159C70.8599 304.44 71.4265 305.231 71.9932 306.021ZM42.5739 205.867C35.1903 211.477 38.2321 221.395 45.2357 223.88C49.6813 225.457 54.378 223.912 57.0933 220.068C59.7993 216.237 59.6234 211.259 56.6542 207.636C53.3375 203.588 49.0141 202.876 42.5739 205.867ZM51.9734 227.487C52.1722 227.553 52.3711 227.618 52.57 227.684C52.5004 227.477 52.4308 227.27 51.9734 227.487Z" fill="#4D4B56"/>
<path d="M117.936 532.141C118.336 532.12 118.735 532.099 119.426 532.025C187.889 531.985 256.06 532 324.231 531.998C325.382 531.998 326.533 531.796 327.925 531.317C329.111 531.664 330.057 532.384 331.016 533.457C326.376 533.88 321.721 534.008 317.067 534.009C250.991 534.014 184.914 534.002 118.395 533.636C117.947 532.898 117.941 532.52 117.936 532.141Z" fill="#5C5A66"/>
<path d="M134.086 246.339C134.558 246.935 135.031 247.532 135.819 248.171C135.967 248.581 135.8 248.948 135.454 249.567C123.883 248.73 112.264 249.945 101.033 246.769C111.401 243.53 121.782 246.671 132.849 246.024C133.754 246.137 133.92 246.238 134.086 246.339Z" fill="#494598"/>
<path d="M72.2717 306.223C71.4263 305.231 70.8596 304.44 70.2422 303.43C77.4218 305.852 84.6523 308.492 92.2261 311.133C93.7204 311.939 94.8714 312.743 96.0225 313.547C95.798 314.115 95.5735 314.683 95.3491 315.251C87.6226 312.705 80.1285 309.434 72.2717 306.223Z" fill="#424058"/>
<path d="M524.414 239.846C524.3 239.441 524.379 238.895 524.748 238.363C524.894 238.82 524.75 239.262 524.414 239.846Z" fill="#EFEFF0"/>
<path d="M117.483 532.048C117.941 532.52 117.946 532.898 117.925 533.561C104.6 533.889 91.3008 533.933 77.5482 533.911C77.0672 533.489 77.0399 533.131 77.0273 532.508C82.6259 532.153 88.2096 532.064 94.7251 532.023C97.2695 532.049 98.8822 532.026 100.495 532.003C106.007 531.987 111.519 531.971 117.483 532.048Z" fill="#494598"/>
<path d="M515.573 204.046C515.651 205.538 515.795 207.03 515.795 208.522C515.808 302.938 515.822 397.353 515.8 491.769C515.796 507.709 507.22 519.011 492.516 522.389C489.639 523.049 486.577 523.099 483.601 523.104C451.296 523.149 418.992 523.129 386.229 522.583C386.379 501.387 379.491 483.732 364.047 469.896C349.588 456.942 332.282 452.301 313.123 453.987C313.063 452.159 312.952 450.33 312.951 448.502C312.944 340.946 312.944 233.39 312.95 125.834C312.951 104.821 324.667 93.1502 345.774 93.1075C350.073 93.0989 354.372 93.1063 359.036 93.1063C358.942 94.6472 358.869 95.7464 358.809 96.8463C358.307 105.967 363.885 112.206 373.069 112.365C384.055 112.556 395.045 112.454 406.503 113.026C407.849 122.79 407.648 132.269 409.821 141.168C414.53 160.46 425.062 176.481 441.115 188.391C456.849 200.064 474.387 206.923 494.34 205.948C501.432 205.602 508.496 204.696 515.573 204.046ZM446.538 382.92C447.032 382.597 447.526 382.274 448.006 381.686C448.006 381.686 447.948 381.428 448.732 381.065C452.334 370.991 448.504 364.656 440.359 364.614C420.934 364.514 401.508 364.49 382.083 364.605C375.838 364.643 372.952 367.634 371.853 374.437C371.786 374.594 371.719 374.751 370.957 374.933C366.517 378.013 364.895 382.825 366.603 388.473C368.089 393.387 371.811 394.943 376.623 394.93C395.267 394.882 413.91 394.85 432.553 394.95C437.34 394.976 440.993 393.483 443.783 388.88C444.494 387.51 445.205 386.139 445.868 384.159C445.922 383.754 445.975 383.35 445.978 382.979C445.978 382.979 445.945 383.03 446.538 382.92ZM482.762 287.675C482.762 287.675 482.383 287.561 481.885 287.014C479.479 286.547 477.073 285.678 474.666 285.673C433.933 285.593 393.2 285.609 352.468 285.636C344.798 285.641 341.387 288.825 340.366 296.07C336.035 298.973 334.697 303.57 336.347 309.608C337.678 314.48 341.288 315.055 345.616 315.048C387.003 314.976 428.39 315.008 469.777 315.003C475.912 315.002 477.448 313.737 479.417 307.255C480.476 306.698 481.535 306.14 482.927 305.435C482.927 305.435 483.166 305.158 483.802 304.836C487.951 299.07 487.66 292.417 482.762 287.675ZM479.166 321.928C477.341 321.813 475.516 321.598 473.691 321.597C433.901 321.577 394.111 321.575 354.32 321.595C352.33 321.596 350.321 321.723 348.364 322.05C347.966 322.117 347.763 323.351 347.509 324.034C347.509 324.034 347.546 324.015 347.629 323.105C342.138 323.036 342.194 327.299 340.846 331.091C334.839 334.271 335.419 339.846 336.346 345.046C336.981 348.611 339.418 351.044 343.759 351.036C386.183 350.96 428.608 351.002 471.033 350.976C475.877 350.973 478.309 348.576 479.677 343.202C485.383 341.25 486.521 336.799 486.329 331.438C486.167 326.901 484.572 323.542 479.166 321.928Z" fill="#FEFEFE"/>
<path d="M515.707 203.591C508.496 204.696 501.432 205.602 494.34 205.948C474.387 206.923 456.849 200.064 441.115 188.391C425.062 176.481 414.53 160.46 409.821 141.168C407.648 132.269 407.849 122.79 406.947 113.157C421.369 112.606 435.817 112.48 450.264 112.328C452.422 112.305 454.609 112.358 456.73 112.035C464.91 110.789 469.778 103.599 468.194 95.3374C468.076 94.718 468.179 94.056 468.179 93.3256C475.905 93.3256 483.666 92.4108 491.127 93.5193C505.881 95.7116 515.732 107.659 515.844 122.818C516.042 149.589 515.862 176.364 515.707 203.591Z" fill="#EDEDEE"/>
<path d="M313.059 454.45C332.282 452.301 349.588 456.942 364.047 469.896C379.491 483.732 386.379 501.387 385.751 522.491C369.748 522.981 353.754 523.4 337.785 522.935C325.286 522.571 313.044 509.016 312.965 496.382C312.879 482.56 312.977 468.736 313.059 454.45Z" fill="#6D64FB"/>
<path d="M100.381 531.585C98.8822 532.026 97.2695 532.049 95.1733 532.01C95.2478 529.233 96.2726 526.52 96.2897 523.802C96.4296 501.562 96.3817 479.322 96.4268 456.622C97.0568 456.103 97.6507 456.044 98.5425 456.056C98.8593 478.564 98.8342 501 98.957 523.436C98.9711 526.015 99.8105 528.59 100.381 531.585Z" fill="#E7E7E8"/>
<path d="M134.446 246.256C133.92 246.238 133.754 246.137 133.31 245.947C125.776 231.754 106.125 222.969 89.4099 226.572C72.8931 230.132 61.3837 239.892 56.6212 256.094C51.8438 272.347 55.6091 287.056 67.7452 299.281C68.4488 299.99 69.1554 300.695 69.9365 301.736C62.4491 299.184 54.6637 296.747 47.4474 293.164C45.0425 291.97 42.9285 287.944 42.6685 285.035C40.7659 263.754 43.1458 243.289 57.5746 226.196C67.444 214.504 80.079 208.367 95.6304 211.228C100.681 212.157 105.776 214.586 110.033 217.516C113.277 219.748 116.134 220.904 119.986 220.769C127.275 220.514 133.886 222.5 138.801 228.271C144.321 234.751 142.394 243.126 134.446 246.256Z" fill="#F9F9FB"/>
<path d="M117.808 258.259C117.816 263.225 117.46 268.082 117.107 272.901C123.348 275.859 124.814 278.079 123.042 281.792C121.141 285.773 115.761 287.634 111.336 285.122C113.403 284.553 115.11 284.499 116.257 283.67C117.971 282.433 119.29 280.65 120.777 279.1C119.143 278.384 117.514 277.657 115.871 276.962C115.433 276.777 114.954 276.691 113.133 276.17C114.566 270.181 116.005 264.165 117.808 258.259Z" fill="#494598"/>
<path d="M42.8968 205.645C49.0139 202.876 53.3373 203.588 56.654 207.636C59.6232 211.259 59.799 216.237 57.0931 220.068C54.3778 223.912 49.6811 225.457 45.2354 223.88C38.2319 221.395 35.19 211.477 42.8968 205.645Z" fill="#F9F9FB"/>
<path d="M52.167 227.275C52.4305 227.27 52.5001 227.477 52.5697 227.684C52.3709 227.618 52.172 227.553 52.167 227.275Z" fill="white"/>
<path d="M347.546 324.015C347.546 324.015 347.509 324.033 347.926 323.913C350.325 323.634 352.308 323.338 354.291 323.336C394.2 323.306 434.109 323.301 474.017 323.331C475.995 323.332 477.972 323.694 480.179 324.092C486.295 329.422 485.616 337.343 478.475 341.559C435.557 341.657 393.101 341.694 350.646 341.716C349.819 341.716 348.992 341.543 347.951 341.233C346.501 340.329 345.265 339.643 344.015 338.98C344.001 339.001 344.053 338.996 344.142 338.593C343.007 332.92 341.665 327.623 347.546 324.015ZM398.5 338.002C420.482 338.002 442.464 338.002 465.364 338.002C461.779 334.333 358.856 333.917 355.233 338.002C369.322 338.002 383.411 338.002 398.5 338.002ZM347.049 334.65C347.801 335.842 348.553 337.033 349.306 338.225C349.764 337.956 350.223 337.688 350.682 337.42C350.248 335.411 349.814 333.401 349.16 330.371C348.095 332.254 347.626 333.084 347.049 334.65Z" fill="#F6F5F6"/>
<path d="M478.982 343.473C478.309 348.576 475.877 350.973 471.033 350.976C428.608 351.002 386.184 350.96 343.759 351.036C339.418 351.044 336.981 348.611 336.346 345.046C335.419 339.846 334.839 334.271 341.207 331.461C342.396 334.219 343.224 336.608 344.053 338.996C344.053 338.996 344 339.001 343.757 339.272C345.017 340.646 346.521 341.75 348.473 342.996C349.916 343.211 350.909 343.345 351.903 343.345C392.949 343.354 433.996 343.354 475.042 343.333C476.362 343.332 477.682 343.106 478.972 343.106C478.942 343.227 478.982 343.473 478.982 343.473Z" fill="#E7E7E8"/>
<path d="M478.915 307.592C477.448 313.737 475.912 315.002 469.778 315.003C428.391 315.008 387.003 314.976 345.617 315.047C341.288 315.055 337.678 314.48 336.347 309.608C334.697 303.57 336.035 298.973 340.85 296.425C342.035 304.671 344.782 307.662 352.016 307.667C394.315 307.694 436.615 307.627 478.915 307.592Z" fill="#EFEFF0"/>
<path d="M443.104 389.003C440.993 393.483 437.34 394.976 432.553 394.95C413.91 394.85 395.267 394.882 376.623 394.93C371.811 394.943 368.089 393.387 366.603 388.473C364.895 382.825 366.517 378.013 371.401 375.33C372.439 384.46 375.219 387.038 384.037 387.039C403.643 387.039 423.25 387.042 442.935 387.365C443.043 388.125 443.073 388.564 443.104 389.003Z" fill="#6F66F9"/>
<path d="M479.166 307.424C436.615 307.627 394.316 307.694 352.016 307.667C344.782 307.662 342.035 304.671 341.219 296.398C341.387 288.825 344.799 285.641 352.468 285.635C393.201 285.609 433.933 285.593 474.666 285.673C477.073 285.678 479.479 286.547 481.897 287.561C481.751 288.291 481.593 288.473 481.057 288.509C477.548 288.072 474.417 287.533 471.286 287.528C433.666 287.468 396.046 287.487 358.425 287.488C355.929 287.488 353.427 287.405 350.938 287.548C346.831 287.783 343.902 289.476 343.501 294.493C343.376 303.835 345.299 305.766 354.237 305.767C393.891 305.772 433.545 305.78 473.2 305.74C475.138 305.738 477.076 305.292 479.338 305.049C480.271 304.831 480.88 304.617 481.761 304.702C482.219 305.195 482.407 305.389 482.594 305.582C481.535 306.14 480.476 306.698 479.166 307.424Z" fill="#5C5A66"/>
<path d="M443.444 388.942C443.074 388.564 443.043 388.125 443.117 386.917C443.263 385.527 443.305 384.907 443.285 383.942C441.979 381.014 440.736 378.432 439.271 375.577C438.395 375.14 437.741 374.974 437.055 374.825C437.024 374.842 437.082 374.883 436.798 374.564C415.78 374.171 395.046 374.097 374.281 373.959C374.249 373.896 374.115 373.85 374.14 373.492C375.059 368.224 378.432 366.914 382.9 366.925C399.843 366.967 416.786 366.93 433.729 366.936C448.016 366.94 448.44 367.38 447.948 381.428C447.948 381.428 448.006 381.686 447.744 381.937C446.969 382.468 446.457 382.749 445.945 383.03C445.945 383.03 445.978 382.979 445.887 383.147C445.836 383.799 445.877 384.284 445.917 384.768C445.206 386.139 444.495 387.51 443.444 388.942Z" fill="#F9F9FB"/>
<path d="M479.95 323.887C477.972 323.694 475.995 323.332 474.017 323.331C434.108 323.301 394.2 323.306 354.291 323.336C352.308 323.338 350.325 323.634 347.906 323.92C347.763 323.351 347.966 322.117 348.364 322.05C350.321 321.723 352.33 321.596 354.32 321.595C394.111 321.575 433.901 321.577 473.691 321.597C475.516 321.598 477.341 321.813 479.56 322.473C479.952 323.307 479.951 323.597 479.95 323.887Z" fill="#5C5A66"/>
<path d="M448.34 381.246C448.44 367.38 448.016 366.94 433.729 366.936C416.786 366.93 399.843 366.967 382.9 366.925C378.432 366.914 375.059 368.224 373.813 373.521C373.021 373.944 372.584 373.98 372.146 374.015C372.952 367.634 375.839 364.643 382.083 364.605C401.508 364.49 420.935 364.514 440.36 364.614C448.505 364.656 452.335 370.99 448.34 381.246Z" fill="#777582"/>
<path d="M371.999 374.226C372.583 373.98 373.021 373.944 373.787 373.879C374.114 373.85 374.249 373.896 374.221 374.347C374.466 376.509 374.74 378.22 375.04 380.301C376.695 384.698 380.302 384.876 383.775 384.889C402.339 384.963 420.903 384.938 439.466 384.899C440.76 384.897 442.054 384.5 443.347 384.287C443.305 384.907 443.263 385.527 443.039 386.596C423.25 387.042 403.643 387.039 384.037 387.039C375.22 387.038 372.439 384.46 371.749 375.318C371.719 374.751 371.786 374.594 371.999 374.226Z" fill="#494598"/>
<path d="M480.18 324.092C479.951 323.597 479.953 323.307 479.959 322.583C484.573 323.542 486.167 326.901 486.329 331.438C486.521 336.799 485.383 341.25 479.33 343.338C478.982 343.473 478.943 343.227 478.959 342.733C478.962 341.991 478.949 341.743 478.936 341.495C485.617 337.343 486.295 329.422 480.18 324.092Z" fill="#777582"/>
<path d="M483.063 287.932C487.661 292.417 487.951 299.07 483.414 304.452C482.944 303.712 482.861 303.355 482.821 302.654C484.56 297.773 484.367 293.382 482.147 289.064C482.647 288.617 482.855 288.275 483.063 287.932Z" fill="#9A99A2"/>
<path d="M344.142 338.593C343.224 336.608 342.396 334.219 341.528 331.399C342.194 327.299 342.138 323.036 347.588 323.56C341.665 327.623 343.007 332.92 344.142 338.593Z" fill="#5C5A66"/>
<path d="M445.892 384.464C445.876 384.284 445.836 383.799 445.912 383.13C445.975 383.35 445.922 383.754 445.892 384.464Z" fill="#777582"/>
<path d="M446.242 382.975C446.457 382.749 446.969 382.468 447.751 382.069C447.526 382.274 447.032 382.597 446.242 382.975Z" fill="#777582"/>
<path d="M482.779 302.998C482.861 303.355 482.944 303.712 483.096 304.613C483.166 305.158 482.928 305.435 482.761 305.509C482.406 305.389 482.219 305.195 481.957 304.451C482.181 303.6 482.48 303.299 482.779 302.998Z" fill="#5C5A66"/>
<path d="M482.913 287.804C482.855 288.275 482.647 288.617 482.017 288.956C481.594 288.954 481.435 288.655 481.435 288.655C481.593 288.473 481.751 288.291 482.146 287.835C482.384 287.561 482.763 287.675 482.913 287.804Z" fill="#5C5A66"/>
<path d="M398 338.002C383.411 338.002 369.322 338.002 355.232 338.002C358.856 333.917 461.778 334.333 465.363 338.002C442.463 338.002 420.482 338.002 398 338.002Z" fill="#EDEDEE"/>
<path d="M478.475 341.559C478.949 341.743 478.962 341.991 478.988 342.612C477.682 343.106 476.362 343.332 475.042 343.333C433.996 343.354 392.95 343.354 351.903 343.345C350.91 343.345 349.916 343.211 348.51 342.646C348.12 341.918 348.142 341.685 348.165 341.451C348.992 341.543 349.819 341.716 350.645 341.716C393.101 341.694 435.557 341.657 478.475 341.559Z" fill="#4D4B56"/>
<path d="M347.103 334.282C347.626 333.084 348.095 332.254 349.16 330.371C349.814 333.401 350.248 335.411 350.682 337.42C350.223 337.688 349.765 337.956 349.306 338.225C348.553 337.033 347.801 335.842 347.103 334.282Z" fill="#EDEDEE"/>
<path d="M347.95 341.233C348.142 341.685 348.12 341.918 348.061 342.503C346.521 341.75 345.017 340.646 343.771 339.25C345.265 339.643 346.501 340.329 347.95 341.233Z" fill="#5C5A66"/>
<path d="M479.014 305.052C477.076 305.292 475.138 305.738 473.199 305.74C433.545 305.78 393.891 305.772 354.237 305.767C345.299 305.766 343.376 303.835 343.953 294.474C348.123 294.028 351.711 293.991 355.298 294.019C393.075 294.313 430.852 294.545 468.627 294.976C476.796 295.069 478.445 297.015 479.014 305.052Z" fill="#EDEDEE"/>
<path d="M479.338 305.049C478.445 297.015 476.796 295.069 468.627 294.976C430.852 294.545 393.075 294.313 355.298 294.019C351.711 293.991 348.123 294.028 344.083 294.053C343.902 289.476 346.831 287.783 350.938 287.548C353.427 287.405 355.929 287.488 358.425 287.488C396.046 287.487 433.666 287.468 471.286 287.528C474.418 287.533 477.548 288.072 481.057 288.509C481.435 288.655 481.594 288.954 481.724 289.061C484.367 293.382 484.561 297.773 482.821 302.654C482.48 303.299 482.181 303.6 481.686 304.151C480.88 304.617 480.271 304.831 479.338 305.049Z" fill="#FEFEFE"/>
<path d="M443.285 383.942C442.054 384.5 440.761 384.897 439.467 384.899C420.903 384.938 402.339 384.963 383.776 384.889C380.302 384.876 376.695 384.698 375.036 379.876C374.383 375.096 376.815 374.957 379.817 374.963C398.905 375.001 417.994 374.923 437.082 374.883C437.082 374.883 437.024 374.842 437.227 375.141C438.117 375.577 438.805 375.713 439.492 375.849C440.736 378.432 441.979 381.014 443.285 383.942Z" fill="#6D64FA"/>
<path d="M436.798 374.564C417.993 374.923 398.905 375.001 379.816 374.963C376.815 374.957 374.383 375.096 375.01 379.507C374.74 378.22 374.467 376.509 374.252 374.41C395.046 374.097 415.78 374.171 436.798 374.564Z" fill="#6F66F9"/>
<path d="M439.271 375.577C438.804 375.713 438.117 375.577 437.258 375.124C437.741 374.974 438.395 375.14 439.271 375.577Z" fill="#6F66F9"/>
</svg>
